<svg width="104" height="24" viewBox="0 0 104 24" fill="none" xmlns="http://www.w3.org/2000/svg">
<path d="M37.2911 17.6242C35.9611 17.6242 34.8148 17.3392 33.8521 16.7692C32.8895 16.1866 32.1485 15.3822 31.6291 14.3562C31.1098 13.3176 30.8501 12.1206 30.8501 10.7652C30.8501 9.40991 31.1098 8.21291 31.6291 7.17424C32.1485 6.13557 32.8895 5.32491 33.8521 4.74224C34.8148 4.15957 35.9611 3.86824 37.2911 3.86824C38.8998 3.86824 40.2171 4.26724 41.2431 5.06524C42.2818 5.86324 42.9278 6.99057 43.1811 8.44724H40.3691C40.2045 7.73791 39.8625 7.18691 39.3431 6.79424C38.8238 6.38891 38.1335 6.18624 37.2721 6.18624C36.4741 6.18624 35.7901 6.37624 35.2201 6.75624C34.6501 7.12357 34.2131 7.64924 33.9091 8.33324C33.6178 9.00457 33.4721 9.81524 33.4721 10.7652C33.4721 11.7026 33.6178 12.5132 33.9091 13.1972C34.2131 13.8812 34.6501 14.4069 35.2201 14.7742C35.7901 15.1416 36.4741 15.3252 37.2721 15.3252C38.1335 15.3252 38.8175 15.1416 39.3241 14.7742C39.8435 14.3942 40.1918 13.8686 40.3691 13.1972H43.1811C42.9278 14.5779 42.2818 15.6609 41.2431 16.4462C40.2171 17.2316 38.8998 17.6242 37.2911 17.6242ZM48.525 17.6242C47.727 17.6242 47.0683 17.4976 46.549 17.2442C46.0297 16.9782 45.6433 16.6299 45.39 16.1992C45.1367 15.7686 45.01 15.2872 45.01 14.7552C45.01 14.1726 45.1557 13.6659 45.447 13.2352C45.751 12.7919 46.207 12.4436 46.815 12.1902C47.423 11.9369 48.183 11.8102 49.095 11.8102H51.47C51.47 11.3416 51.4067 10.9616 51.28 10.6702C51.1533 10.3662 50.9507 10.1382 50.672 9.98624C50.406 9.83424 50.0577 9.75824 49.627 9.75824C49.1457 9.75824 48.7277 9.86591 48.373 10.0812C48.031 10.2966 47.822 10.6196 47.746 11.0502H45.257C45.333 10.3536 45.561 9.75824 45.941 9.26424C46.3337 8.75757 46.8467 8.36491 47.48 8.08624C48.126 7.80757 48.848 7.66824 49.646 7.66824C50.5453 7.66824 51.318 7.82024 51.964 8.12424C52.6227 8.42824 53.1293 8.86524 53.484 9.43524C53.8513 10.0052 54.035 10.7019 54.035 11.5252V17.3962H51.869L51.584 15.9332C51.4447 16.1866 51.28 16.4146 51.09 16.6172C50.9 16.8199 50.6783 16.9972 50.425 17.1492C50.1717 17.3012 49.8867 17.4152 49.57 17.4912C49.2533 17.5799 48.905 17.6242 48.525 17.6242ZM49.133 15.6482C49.4623 15.6482 49.7537 15.5912 50.007 15.4772C50.273 15.3506 50.501 15.1859 50.691 14.9832C50.881 14.7679 51.0267 14.5272 51.128 14.2612C51.242 13.9952 51.318 13.7102 51.356 13.4062V13.3872H49.399C49.0063 13.3872 48.6833 13.4379 48.43 13.5392C48.1893 13.6279 48.0057 13.7609 47.879 13.9382C47.765 14.1156 47.708 14.3182 47.708 14.5462C47.708 14.7742 47.765 14.9706 47.879 15.1352C48.0057 15.2999 48.1703 15.4266 48.373 15.5152C48.5883 15.6039 48.8417 15.6482 49.133 15.6482ZM56.3717 17.3962V7.89624H58.6327L58.8417 9.16924C59.1457 8.71324 59.5447 8.35224 60.0387 8.08624C60.5454 7.80757 61.1281 7.66824 61.7867 7.66824C62.2681 7.66824 62.6987 7.73157 63.0787 7.85824C63.4714 7.97224 63.8134 8.15591 64.1047 8.40924C64.4087 8.64991 64.6557 8.95391 64.8457 9.32124C65.2004 8.81457 65.6627 8.41557 66.2327 8.12424C66.8154 7.82024 67.4424 7.66824 68.1137 7.66824C68.9497 7.66824 69.6464 7.83924 70.2037 8.18124C70.7737 8.51057 71.1981 8.99824 71.4767 9.64424C71.7681 10.2776 71.9137 11.0629 71.9137 12.0002V17.3962H69.3677V12.2282C69.3677 11.4556 69.2157 10.8666 68.9117 10.4612C68.6204 10.0432 68.1581 9.83424 67.5247 9.83424C67.1067 9.83424 66.7394 9.93557 66.4227 10.1382C66.1061 10.3409 65.8591 10.6386 65.6817 11.0312C65.5171 11.4112 65.4347 11.8736 65.4347 12.4182V17.3962H62.8697V12.2282C62.8697 11.4556 62.7177 10.8666 62.4137 10.4612C62.1224 10.0432 61.6537 9.83424 61.0077 9.83424C60.6024 9.83424 60.2414 9.93557 59.9247 10.1382C59.6207 10.3409 59.3801 10.6386 59.2027 11.0312C59.0254 11.4112 58.9367 11.8736 58.9367 12.4182V17.3962H56.3717ZM78.894 17.6242C77.9313 17.6242 77.0763 17.4216 76.329 17.0162C75.5943 16.5982 75.018 16.0219 74.6 15.2872C74.1947 14.5526 73.992 13.7039 73.992 12.7412C73.992 11.7406 74.1947 10.8666 74.6 10.1192C75.0053 9.35924 75.5753 8.76391 76.31 8.33324C77.0573 7.88991 77.9187 7.66824 78.894 7.66824C79.844 7.66824 80.6737 7.87724 81.383 8.29524C82.0923 8.70057 82.6433 9.25791 83.036 9.96724C83.4413 10.6639 83.644 11.4619 83.644 12.3612C83.644 12.4879 83.644 12.6336 83.644 12.7982C83.644 12.9502 83.6313 13.1086 83.606 13.2732H75.816V11.7152H81.06C81.022 11.1199 80.8003 10.6449 80.395 10.2902C80.0023 9.92291 79.5083 9.73924 78.913 9.73924C78.4697 9.73924 78.0643 9.84057 77.697 10.0432C77.3297 10.2459 77.0383 10.5436 76.823 10.9362C76.6203 11.3289 76.519 11.8292 76.519 12.4372V13.0072C76.519 13.5139 76.614 13.9572 76.804 14.3372C77.0067 14.7172 77.2853 15.0149 77.64 15.2302C78.0073 15.4329 78.419 15.5342 78.875 15.5342C79.3437 15.5342 79.73 15.4329 80.034 15.2302C80.3507 15.0276 80.5913 14.7616 80.756 14.4322H83.378C83.2007 15.0276 82.8967 15.5659 82.466 16.0472C82.048 16.5286 81.535 16.9149 80.927 17.2062C80.3317 17.4849 79.654 17.6242 78.894 17.6242ZM85.7067 17.3962V7.89624H87.9867L88.2337 9.66324C88.4743 9.25791 88.7593 8.90957 89.0887 8.61824C89.4307 8.31424 89.8233 8.07991 90.2667 7.91524C90.71 7.75057 91.204 7.66824 91.7487 7.66824V10.3852H90.9507C90.558 10.3852 90.197 10.4296 89.8677 10.5182C89.5383 10.6069 89.2533 10.7526 89.0127 10.9552C88.7847 11.1452 88.601 11.4176 88.4617 11.7722C88.335 12.1142 88.2717 12.5449 88.2717 13.0642V17.3962H85.7067ZM96.6559 17.6242C95.8579 17.6242 95.1992 17.4976 94.6799 17.2442C94.1605 16.9782 93.7742 16.6299 93.5209 16.1992C93.2675 15.7686 93.1409 15.2872 93.1409 14.7552C93.1409 14.1726 93.2865 13.6659 93.5779 13.2352C93.8819 12.7919 94.3379 12.4436 94.9459 12.1902C95.5539 11.9369 96.3139 11.8102 97.2259 11.8102H99.6009C99.6009 11.3416 99.5375 10.9616 99.4109 10.6702C99.2842 10.3662 99.0815 10.1382 98.8029 9.98624C98.5369 9.83424 98.1885 9.75824 97.7579 9.75824C97.2765 9.75824 96.8585 9.86591 96.5039 10.0812C96.1619 10.2966 95.9529 10.6196 95.8769 11.0502H93.3879C93.4639 10.3536 93.6919 9.75824 94.0719 9.26424C94.4645 8.75757 94.9775 8.36491 95.6109 8.08624C96.2569 7.80757 96.9789 7.66824 97.7769 7.66824C98.6762 7.66824 99.4489 7.82024 100.095 8.12424C100.754 8.42824 101.26 8.86524 101.615 9.43524C101.982 10.0052 102.166 10.7019 102.166 11.5252V17.3962H99.9999L99.7149 15.9332C99.5755 16.1866 99.4109 16.4146 99.2209 16.6172C99.0309 16.8199 98.8092 16.9972 98.5559 17.1492C98.3025 17.3012 98.0175 17.4152 97.7009 17.4912C97.3842 17.5799 97.0359 17.6242 96.6559 17.6242ZM97.2639 15.6482C97.5932 15.6482 97.8845 15.5912 98.1379 15.4772C98.4039 15.3506 98.6319 15.1859 98.8219 14.9832C99.0119 14.7679 99.1575 14.5272 99.2589 14.2612C99.3729 13.9952 99.4489 13.7102 99.4869 13.4062V13.3872H97.5299C97.1372 13.3872 96.8142 13.4379 96.5609 13.5392C96.3202 13.6279 96.1365 13.7609 96.0099 13.9382C95.8959 14.1156 95.8389 14.3182 95.8389 14.5462C95.8389 14.7742 95.8959 14.9706 96.0099 15.1352C96.1365 15.2999 96.3012 15.4266 96.5039 15.5152C96.7192 15.6039 96.9725 15.6482 97.2639 15.6482Z" fill="white"/>
<mask id="mask0_100_205" style="mask-type:alpha" maskUnits="userSpaceOnUse" x="0" y="0" width="24" height="24">
<circle cx="12" cy="12" r="12" fill="#C4C4C4"/>
</mask>
<g mask="url(#mask0_100_205)">
<circle cx="6.29106" cy="-2.13141" r="9.9559" transform="rotate(-22 6.29106 -2.13141)" fill="white"/>
<circle cx="17.71" cy="26.1306" r="9.9559" transform="rotate(-22 17.71 26.1306)" fill="white"/>
<circle cx="-2.12983" cy="17.7092" r="9.9559" transform="rotate(-22 -2.12983 17.7092)" fill="white"/>
<circle cx="25.8697" cy="5.64325" r="9.9559" transform="rotate(-22 25.8697 5.64325)" fill="white"/>
</g>
</svg>
