<svg width="104" height="24" viewBox="0 0 104 24" fill="none" xmlns="http://www.w3.org/2000/svg">
<path d="M32.5385 17V3.04765H35.2293L41.6474 12.6748V3.04765H44.3382V17H41.6474L35.2293 7.41274V17H32.5385ZM50.3688 17.2392C49.5317 17.2392 48.8407 17.1063 48.2959 16.8405C47.7511 16.5615 47.3458 16.1961 47.0801 15.7443C46.8143 15.2925 46.6814 14.7876 46.6814 14.2295C46.6814 13.6315 46.8342 13.1 47.1399 12.6349C47.4588 12.1698 47.9371 11.8111 48.575 11.5586C49.2128 11.2928 50.0101 11.1599 50.9668 11.1599H53.4583C53.4583 10.6683 53.3852 10.263 53.239 9.9441C53.1062 9.62519 52.9002 9.39265 52.6211 9.24648C52.3421 9.08702 51.9767 9.0073 51.5249 9.0073C51.0199 9.0073 50.5814 9.12024 50.2094 9.34614C49.8506 9.57203 49.6314 9.91088 49.5516 10.3627H46.9405C47.007 9.63183 47.2462 9.0073 47.6581 8.48907C48.07 7.95755 48.6082 7.54562 49.2726 7.25329C49.9503 6.96095 50.7077 6.81478 51.5448 6.81478C52.4883 6.81478 53.2988 6.97424 53.9765 7.29315C54.6675 7.59877 55.199 8.05721 55.5711 8.66845C55.9564 9.26641 56.1491 9.99725 56.1491 10.861V17H53.8769L53.5779 15.4652C53.4317 15.731 53.259 15.9702 53.0596 16.1828C52.8603 16.3954 52.6278 16.5814 52.362 16.7409C52.0963 16.9003 51.7973 17.0199 51.4651 17.0997C51.1329 17.1927 50.7675 17.2392 50.3688 17.2392ZM51.0067 15.1663C51.3521 15.1663 51.6644 15.1065 51.9435 14.9869C52.2225 14.854 52.455 14.6813 52.6411 14.4686C52.8404 14.2427 52.9932 13.9903 53.0995 13.7112C53.2191 13.4322 53.2988 13.1332 53.3387 12.8143V12.7944H51.2658C50.8671 12.7944 50.5349 12.8475 50.2692 12.9538C50.0034 13.0601 49.8107 13.2063 49.6911 13.3923C49.5716 13.5651 49.5118 13.771 49.5118 14.0102C49.5118 14.2627 49.5716 14.4753 49.6911 14.648C49.824 14.8075 49.9968 14.9337 50.2094 15.0267C50.4353 15.1198 50.701 15.1663 51.0067 15.1663ZM62.9882 17C62.284 17 61.6661 16.8937 61.1346 16.6811C60.6163 16.4552 60.2111 16.0898 59.9187 15.5848C59.6264 15.0666 59.4802 14.3623 59.4802 13.472V9.30628H57.786V7.05397H59.4802L59.7792 4.34322H62.171V7.05397H64.802V9.30628H62.171V13.5119C62.171 13.9637 62.2707 14.276 62.47 14.4487C62.6693 14.6215 63.0082 14.7078 63.4865 14.7078H64.7622V17H62.9882ZM70.7559 17.2392C69.9454 17.2392 69.2477 17.0664 68.6631 16.721C68.0917 16.3755 67.6532 15.8705 67.3476 15.2061C67.0419 14.5284 66.8891 13.6979 66.8891 12.7146V7.05397H69.5799V12.4555C69.5799 13.2661 69.746 13.8906 70.0782 14.3291C70.4104 14.7543 70.9353 14.9669 71.6529 14.9669C72.1047 14.9669 72.5033 14.8606 72.8488 14.648C73.2076 14.4354 73.4866 14.1298 73.6859 13.7312C73.8852 13.3325 73.9849 12.8409 73.9849 12.2562V7.05397H76.6757V17H74.3237L74.1045 15.3456C73.7989 15.917 73.3604 16.3755 72.789 16.721C72.2176 17.0664 71.5399 17.2392 70.7559 17.2392ZM79.2915 17V7.05397H81.6833L81.9424 8.90764C82.1949 8.46913 82.4939 8.09707 82.8393 7.79145C83.1981 7.48583 83.61 7.24664 84.0751 7.0739C84.5402 6.90116 85.0518 6.81478 85.6099 6.81478V9.64512H84.7927C84.3807 9.64512 84.002 9.69163 83.6566 9.78464C83.3111 9.87766 83.0121 10.0305 82.7596 10.2431C82.5204 10.4557 82.3278 10.748 82.1816 11.1201C82.0487 11.4789 81.9823 11.9306 81.9823 12.4755V17H79.2915ZM90.7582 17.2392C89.9211 17.2392 89.2301 17.1063 88.6853 16.8405C88.1405 16.5615 87.7352 16.1961 87.4695 15.7443C87.2037 15.2925 87.0708 14.7876 87.0708 14.2295C87.0708 13.6315 87.2236 13.1 87.5293 12.6349C87.8482 12.1698 88.3265 11.8111 88.9644 11.5586C89.6022 11.2928 90.3995 11.1599 91.3562 11.1599H93.8477C93.8477 10.6683 93.7746 10.263 93.6284 9.9441C93.4956 9.62519 93.2896 9.39265 93.0105 9.24648C92.7315 9.08702 92.3661 9.0073 91.9143 9.0073C91.4093 9.0073 90.9708 9.12024 90.5988 9.34614C90.24 9.57203 90.0208 9.91088 89.941 10.3627H87.3299C87.3964 9.63183 87.6356 9.0073 88.0475 8.48907C88.4594 7.95755 88.9976 7.54562 89.662 7.25329C90.3397 6.96095 91.0971 6.81478 91.9342 6.81478C92.8777 6.81478 93.6882 6.97424 94.3659 7.29315C95.0569 7.59877 95.5884 8.05721 95.9605 8.66845C96.3458 9.26641 96.5385 9.99725 96.5385 10.861V17H94.2663L93.9673 15.4652C93.8211 15.731 93.6484 15.9702 93.449 16.1828C93.2497 16.3954 93.0172 16.5814 92.7514 16.7409C92.4857 16.9003 92.1867 17.0199 91.8545 17.0997C91.5223 17.1927 91.1569 17.2392 90.7582 17.2392ZM91.3961 15.1663C91.7415 15.1663 92.0538 15.1065 92.3329 14.9869C92.6119 14.854 92.8444 14.6813 93.0305 14.4686C93.2298 14.2427 93.3826 13.9903 93.4889 13.7112C93.6085 13.4322 93.6882 13.1332 93.7281 12.8143V12.7944H91.6552C91.2565 12.7944 90.9243 12.8475 90.6586 12.9538C90.3928 13.0601 90.2001 13.2063 90.0806 13.3923C89.961 13.5651 89.9012 13.771 89.9012 14.0102C89.9012 14.2627 89.961 14.4753 90.0806 14.648C90.2134 14.8075 90.3862 14.9337 90.5988 15.0267C90.8247 15.1198 91.0904 15.1663 91.3961 15.1663ZM98.9898 17V2.64901H101.681V17H98.9898Z" fill="white"/>
<path d="M1.26222 24.0001C0.752927 24.0001 0.291013 23.6921 0.0967723 23.2208C-0.0998372 22.7494 0.00912719 22.2045 0.369183 21.8445L7.23867 14.975C7.73375 14.4823 8.53203 14.4823 9.02474 14.975C9.51981 15.4677 9.51981 16.2684 9.02474 16.7611L2.15525 23.6306C1.92074 23.8674 1.59858 24.0001 1.26222 24.0001Z" fill="white"/>
<path d="M21.4866 0.698259L3.52408 18.6584C-0.228079 14.9062 -0.228079 8.82083 3.52408 5.0663C8.86333 -0.272945 21.4866 0.698259 21.4866 0.698259Z" fill="white"/>
<path d="M17.116 18.6582C13.3639 22.4127 7.27846 22.4127 3.52393 18.6582L21.4864 0.697998C21.4864 0.697998 22.4577 13.3189 17.116 18.6582Z" fill="white" fill-opacity="0.6"/>
</svg>
