<svg width="99" height="24" viewBox="0 0 99 24" fill="none" xmlns="http://www.w3.org/2000/svg">
<path d="M32.1903 17.187V6.23034H35.9C37.173 6.23034 38.2217 6.45991 39.0461 6.91905C39.8809 7.36775 40.4965 8.00428 40.8931 8.82864C41.3 9.64256 41.5035 10.6026 41.5035 11.7087C41.5035 12.8148 41.3 13.78 40.8931 14.6044C40.4965 15.4183 39.8809 16.0548 39.0461 16.514C38.2217 16.9627 37.1678 17.187 35.8843 17.187H32.1903ZM34.3034 15.3713H35.7747C36.6721 15.3713 37.3817 15.2252 37.9035 14.9331C38.4252 14.6409 38.7956 14.2235 39.0148 13.6809C39.2339 13.1278 39.3435 12.4704 39.3435 11.7087C39.3435 10.9365 39.2339 10.2791 39.0148 9.73648C38.7956 9.18343 38.4252 8.76081 37.9035 8.46863C37.3817 8.17646 36.6721 8.03037 35.7747 8.03037H34.3034V15.3713ZM46.9663 17.3748C46.215 17.3748 45.5367 17.2027 44.9315 16.8583C44.3367 16.5035 43.8619 16.0183 43.5071 15.4026C43.1628 14.7765 42.9906 14.0618 42.9906 13.2583C42.9906 12.4443 43.1628 11.7295 43.5071 11.1139C43.8619 10.4878 44.3419 10.0026 44.9472 9.65822C45.5524 9.31386 46.2306 9.14169 46.982 9.14169C47.7437 9.14169 48.422 9.31386 49.0168 9.65822C49.622 10.0026 50.0968 10.4878 50.4411 11.1139C50.7959 11.7295 50.9733 12.4443 50.9733 13.2583C50.9733 14.0618 50.7959 14.7765 50.4411 15.4026C50.0968 16.0183 49.622 16.5035 49.0168 16.8583C48.4115 17.2027 47.7281 17.3748 46.9663 17.3748ZM46.9663 15.5435C47.3211 15.5435 47.6341 15.46 47.9055 15.2931C48.1768 15.1261 48.3959 14.8705 48.5629 14.5261C48.7298 14.1818 48.8133 13.7591 48.8133 13.2583C48.8133 12.747 48.7298 12.3243 48.5629 11.9904C48.4063 11.6461 48.1872 11.3904 47.9055 11.2235C47.6341 11.0461 47.3263 10.9574 46.982 10.9574C46.648 10.9574 46.3402 11.0461 46.0585 11.2235C45.7767 11.3904 45.5524 11.6461 45.3854 11.9904C45.2185 12.3243 45.135 12.747 45.135 13.2583C45.135 13.7591 45.2185 14.1818 45.3854 14.5261C45.5524 14.8705 45.7715 15.1261 46.0428 15.2931C46.3246 15.46 46.6324 15.5435 46.9663 15.5435ZM56.6137 17.3748C55.8206 17.3748 55.1163 17.2027 54.5006 16.8583C53.8849 16.5035 53.4049 16.0183 53.0606 15.4026C52.7162 14.7765 52.5441 14.067 52.5441 13.2739C52.5441 12.46 52.7162 11.7452 53.0606 11.1295C53.4049 10.5139 53.8849 10.0287 54.5006 9.67387C55.1163 9.31908 55.8206 9.14169 56.6137 9.14169C57.6259 9.14169 58.4711 9.40778 59.1494 9.93996C59.8381 10.4617 60.2763 11.1869 60.4642 12.1156H58.2415C58.1476 11.7504 57.9493 11.4635 57.6467 11.2548C57.3546 11.0461 57.005 10.9417 56.598 10.9417C56.2328 10.9417 55.9041 11.0356 55.6119 11.2235C55.3302 11.4008 55.1058 11.6669 54.9389 12.0217C54.7719 12.3661 54.6884 12.7783 54.6884 13.2583C54.6884 13.6131 54.7354 13.9365 54.8293 14.2287C54.9337 14.5105 55.0693 14.7557 55.2363 14.9644C55.4032 15.1626 55.6015 15.3139 55.8311 15.4183C56.0711 15.5226 56.3267 15.5748 56.598 15.5748C56.8693 15.5748 57.1146 15.5331 57.3337 15.4496C57.5528 15.3557 57.7407 15.22 57.8972 15.0426C58.0641 14.8652 58.1789 14.6513 58.2415 14.4009H60.4642C60.2763 15.3087 59.8381 16.034 59.1494 16.5766C58.4607 17.1087 57.6154 17.3748 56.6137 17.3748ZM65.7325 17.187C65.1899 17.187 64.7099 17.1035 64.2925 16.9366C63.8751 16.7592 63.5516 16.4722 63.3221 16.0757C63.1029 15.6687 62.9934 15.1157 62.9934 14.4165V11.0826H61.6316V9.32952H62.9934L63.2282 7.16949H65.0908V9.32952H67.1726V11.0826H65.1064V14.4478C65.1064 14.8026 65.1795 15.0479 65.3256 15.1835C65.4821 15.3192 65.7534 15.387 66.1395 15.387H67.1569V17.187H65.7325ZM72.4779 17.3748C71.7265 17.3748 71.0483 17.2027 70.443 16.8583C69.8483 16.5035 69.3735 16.0183 69.0187 15.4026C68.6743 14.7765 68.5022 14.0618 68.5022 13.2583C68.5022 12.4443 68.6743 11.7295 69.0187 11.1139C69.3735 10.4878 69.8535 10.0026 70.4587 9.65822C71.0639 9.31386 71.7422 9.14169 72.4935 9.14169C73.2553 9.14169 73.9335 9.31386 74.5283 9.65822C75.1335 10.0026 75.6083 10.4878 75.9527 11.1139C76.3075 11.7295 76.4849 12.4443 76.4849 13.2583C76.4849 14.0618 76.3075 14.7765 75.9527 15.4026C75.6083 16.0183 75.1335 16.5035 74.5283 16.8583C73.9231 17.2027 73.2396 17.3748 72.4779 17.3748ZM72.4779 15.5435C72.8326 15.5435 73.1457 15.46 73.417 15.2931C73.6883 15.1261 73.9074 14.8705 74.0744 14.5261C74.2414 14.1818 74.3248 13.7591 74.3248 13.2583C74.3248 12.747 74.2414 12.3243 74.0744 11.9904C73.9179 11.6461 73.6987 11.3904 73.417 11.2235C73.1457 11.0461 72.8379 10.9574 72.4935 10.9574C72.1596 10.9574 71.8518 11.0461 71.57 11.2235C71.2883 11.3904 71.0639 11.6461 70.897 11.9904C70.73 12.3243 70.6465 12.747 70.6465 13.2583C70.6465 13.7591 70.73 14.1818 70.897 14.5261C71.0639 14.8705 71.2831 15.1261 71.5544 15.2931C71.8361 15.46 72.1439 15.5435 72.4779 15.5435ZM78.306 17.187V9.32952H80.1843L80.3722 10.7695C80.5704 10.4356 80.8104 10.1487 81.0922 9.90865C81.3739 9.65822 81.6974 9.47039 82.0626 9.34517C82.4383 9.20951 82.8505 9.14169 83.2992 9.14169V11.3643H82.5948C82.2817 11.3643 81.9896 11.4008 81.7183 11.4739C81.4574 11.5469 81.2278 11.6669 81.0296 11.8339C80.8313 12.0009 80.68 12.2252 80.5756 12.5069C80.4713 12.7887 80.4191 13.1435 80.4191 13.5713V17.187H78.306ZM84.6954 17.187V5.9173H86.8085V17.187H84.6954ZM89.8548 20.6305L91.7644 16.3105H91.2948L88.1331 9.32952H90.434L92.6879 14.3852L94.7227 9.32952H96.961L92.0931 20.6305H89.8548Z" fill="white"/>
<path d="M19.8394 7.16097H16.1696C14.0024 7.16097 9.1141 6.0645 10.5589 0C9.65674 0.356969 8.88272 0.976848 8.33727 1.77919C7.79181 2.58154 7.5001 3.52931 7.5 4.49951V6.27378C7.5 6.58425 7.51055 6.88796 7.53164 7.18492C12.1525 7.49413 16.7265 10.7849 17.1464 16.8147C17.3852 16.831 17.6242 16.8391 17.8635 16.8391H19.8394C21.1227 16.8391 22.3535 16.3293 23.261 15.4218C24.1685 14.5144 24.6783 13.2836 24.6783 12.0002C24.6783 10.7169 24.1685 9.48608 23.261 8.57862C22.3535 7.67115 21.1227 7.16134 19.8394 7.16134V7.16097Z" fill="white"/>
<path d="M6.81486 7.16113H4.83889C3.55554 7.16113 2.32475 7.67094 1.41728 8.57841C0.50981 9.48588 0 10.7167 0 12C0 13.2834 0.50981 14.5142 1.41728 15.4216C2.32475 16.3291 3.55554 16.8389 4.83889 16.8389H8.5085C10.6755 16.8389 15.5638 17.9354 14.1193 24.0001C15.0213 23.6431 15.7953 23.0231 16.3407 22.2208C16.8861 21.4184 17.1779 20.4707 17.178 19.5005V17.726C17.178 10.7905 11.8959 7.16113 6.81486 7.16113Z" fill="white"/>
</svg>
