<svg width="98" height="32" viewBox="0 0 98 32" fill="none" xmlns="http://www.w3.org/2000/svg">
<g clip-path="url(#clip0_210_1509)">
<path d="M16.6514 6.06865C15.2265 4.64378 12.9163 4.64378 11.4915 6.06865C10.0666 7.49351 10.0666 9.80365 11.4915 11.2285C12.9163 12.6534 15.2265 12.6534 16.6514 11.2285C18.0763 9.80365 18.0763 7.49351 16.6514 6.06865Z" fill="#212121" fill-opacity="0.28"/>
<path d="M0.137279 13.2598C-0.0457598 13.0767 -0.0457596 12.7799 0.137279 12.5969L3.75412 8.98006C3.93715 8.79701 4.23392 8.79701 4.41697 8.98006L14.0714 18.6345L23.726 8.98006C23.909 8.79701 24.2058 8.79701 24.3888 8.98006L28.0057 12.5969C28.1887 12.7799 28.1887 13.0767 28.0057 13.2598L14.4029 26.8625C14.2427 27.0227 13.9955 27.0427 13.8136 26.9226C13.7875 26.9054 13.763 26.8853 13.7401 26.8625L10.1232 23.2457L0.137279 13.2598Z" fill="#212121" fill-opacity="0.28"/>
<path d="M47.3771 21.2668L52.7495 6.36438H56.1782L48.9429 25.5054H45.6492L38.522 6.36438H42.0316L47.3771 21.2668ZM55.2929 21.9418C55.2929 20.8259 55.6529 19.935 56.3728 19.2691C57.1107 18.5852 58.0737 18.1532 59.2615 17.9732L62.6362 17.4602C63.2841 17.3703 63.6081 17.0553 63.6081 16.5153C63.6081 15.9214 63.4011 15.4444 62.9872 15.0845C62.5732 14.7065 61.9523 14.5175 61.1243 14.5175C60.3325 14.5175 59.7025 14.7425 59.2345 15.1925C58.7666 15.6244 58.4966 16.1914 58.4246 16.8933L55.5629 16.2454C55.6889 15.0575 56.2559 14.0496 57.2637 13.2217C58.2716 12.3758 59.5495 11.9528 61.0973 11.9528C63.0052 11.9528 64.409 12.4118 65.3089 13.3297C66.2268 14.2476 66.6858 15.4265 66.6858 16.8663V23.3996C66.6858 24.2635 66.7398 24.9655 66.8478 25.5054H63.9321C63.8421 25.2354 63.7971 24.6775 63.7971 23.8316C62.9332 25.2174 61.5833 25.9104 59.7475 25.9104C58.4157 25.9104 57.3358 25.5234 56.5078 24.7495C55.6979 23.9576 55.2929 23.0217 55.2929 21.9418ZM60.3414 23.4536C61.3133 23.4536 62.0962 23.1926 62.6902 22.6707C63.3022 22.1308 63.6081 21.2579 63.6081 20.052V19.458L60.1794 19.971C59.0096 20.1689 58.4246 20.7629 58.4246 21.7528C58.4246 22.2207 58.5956 22.6257 58.9376 22.9677C59.2796 23.2916 59.7475 23.4536 60.3414 23.4536ZM77.3558 12.2768V15.4624C76.9959 15.4085 76.6539 15.3815 76.3299 15.3815C73.9722 15.3815 72.7933 16.6684 72.7933 19.2421V25.5054H69.6616V12.3578H72.7123V14.4635C73.0182 13.7616 73.5132 13.2127 74.1971 12.8167C74.881 12.4028 75.655 12.1958 76.5189 12.1958C76.8069 12.1958 77.0858 12.2228 77.3558 12.2768ZM82.2649 25.5054H79.1602V12.3578H82.2649V25.5054ZM79.2682 9.17209C78.8722 8.77613 78.6742 8.29919 78.6742 7.74124C78.6742 7.18331 78.8722 6.70635 79.2682 6.31039C79.6642 5.89644 80.141 5.68945 80.699 5.68945C81.2749 5.68945 81.7609 5.88744 82.1569 6.28339C82.5529 6.67935 82.7508 7.1653 82.7508 7.74124C82.7508 8.29919 82.5529 8.77613 82.1569 9.17209C81.7609 9.56806 81.2749 9.76603 80.699 9.76603C80.141 9.76603 79.6642 9.56806 79.2682 9.17209ZM88.6537 21.9958C89.3737 22.7337 90.2465 23.1027 91.2724 23.1027C92.2983 23.1027 93.1622 22.7337 93.8642 21.9958C94.5841 21.2579 94.9441 20.232 94.9441 18.9181C94.9441 17.6222 94.5841 16.6144 93.8642 15.8944C93.1622 15.1565 92.2983 14.7875 91.2724 14.7875C90.2465 14.7875 89.3737 15.1565 88.6537 15.8944C87.9518 16.6144 87.6008 17.6222 87.6008 18.9181C87.6008 20.214 87.9518 21.2399 88.6537 21.9958ZM91.2724 11.9528C93.2522 11.9528 94.8811 12.6097 96.1589 13.9236C97.4548 15.2375 98.1027 16.9023 98.1027 18.9181C98.1027 20.9339 97.4548 22.6077 96.1589 23.9396C94.8811 25.2535 93.2522 25.9104 91.2724 25.9104C89.3106 25.9104 87.6818 25.2535 86.3859 23.9396C85.1081 22.6077 84.4691 20.9339 84.4691 18.9181C84.4691 16.9023 85.1081 15.2375 86.3859 13.9236C87.6818 12.6097 89.3106 11.9528 91.2724 11.9528Z" fill="#212121" fill-opacity="0.28"/>
</g>
<defs>
<clipPath id="clip0_210_1509">
<rect width="98" height="32" fill="white"/>
</clipPath>
</defs>
</svg>
