<svg width="104" height="24" viewBox="0 0 104 24" fill="none" xmlns="http://www.w3.org/2000/svg">
<path d="M0 7.35322C0 7.04064 0.165891 6.75155 0.435763 6.59382L10.3947 0.773449C10.9811 0.430748 11.7181 0.853674 11.7181 1.53285V10.3042L5.92127 6.8485V24H0.879587C0.393805 24 0 23.6062 0 23.1204V7.35322Z" fill="white"/>
<path d="M11.7188 10.3148L17.1683 13.6585C17.429 13.8185 17.5879 14.1024 17.5879 14.4082V23.1203C17.5879 23.6061 17.1941 23.9999 16.7083 23.9999H12.5983C12.1126 23.9999 11.7188 23.6061 11.7188 23.1203V10.3148Z" fill="white"/>
<path d="M25.2113 20.5618L29.5343 8.74132H32.1179L36.4239 20.5618H34.0091L30.8176 11.3418L27.6092 20.5618H25.2113ZM27.1195 17.8768L27.7274 16.1038H33.739L34.33 17.8768H27.1195ZM37.91 20.5618V12.1017H39.9364L40.139 13.6552C40.3529 13.295 40.6118 12.9854 40.9158 12.7265C41.2197 12.4563 41.5687 12.2537 41.9627 12.1186C42.368 11.9722 42.8071 11.8991 43.2799 11.8991V14.2969H42.5538C42.2048 14.2969 41.8839 14.3363 41.5912 14.4151C41.3098 14.4939 41.0621 14.6234 40.8482 14.8035C40.6343 14.9836 40.4711 15.2257 40.3585 15.5296C40.246 15.8336 40.1897 16.2163 40.1897 16.6779V20.5618H37.91ZM48.7749 20.7644C47.9194 20.7644 47.1595 20.5787 46.4953 20.2072C45.8311 19.8244 45.3132 19.3009 44.9417 18.6367C44.5702 17.9725 44.3845 17.2126 44.3845 16.3571C44.3845 15.479 44.5702 14.7078 44.9417 14.0436C45.3132 13.3682 45.8311 12.8447 46.4953 12.4732C47.1595 12.0904 47.9194 11.8991 48.7749 11.8991C49.8669 11.8991 50.7788 12.1861 51.5105 12.7603C52.2535 13.3231 52.7263 14.0999 52.929 15.0906H50.5142C50.4129 14.7078 50.2046 14.4039 49.8894 14.1787C49.5742 13.9536 49.1971 13.841 48.758 13.841C48.364 13.841 48.0094 13.9423 47.6942 14.145C47.3903 14.3363 47.1482 14.6178 46.9681 14.9893C46.788 15.3608 46.6979 15.8054 46.6979 16.3233C46.6979 16.7173 46.7486 17.0663 46.8499 17.3702C46.9625 17.6742 47.1088 17.9388 47.2889 18.1639C47.4691 18.3778 47.683 18.541 47.9306 18.6536C48.1895 18.7662 48.4654 18.8225 48.758 18.8225C49.0507 18.8225 49.3153 18.7774 49.5517 18.6874C49.7881 18.5861 49.9908 18.4397 50.1596 18.2483C50.3397 18.057 50.4579 17.8262 50.5142 17.556H52.929C52.7263 18.5354 52.2535 19.3178 51.5105 19.9032C50.7675 20.4773 49.8557 20.7644 48.7749 20.7644ZM54.8953 20.5618V8.40359H57.175V13.3513C57.4452 12.9122 57.8167 12.5633 58.2895 12.3043C58.7623 12.0342 59.3083 11.8991 59.9274 11.8991C60.6367 11.8991 61.2333 12.0454 61.7174 12.3381C62.2015 12.6308 62.5673 13.0642 62.815 13.6384C63.0627 14.2012 63.1865 14.8992 63.1865 15.7323V20.5618H60.9237V15.9518C60.9237 15.2651 60.783 14.736 60.5016 14.3645C60.2201 13.993 59.7755 13.8072 59.1676 13.8072C58.7961 13.8072 58.4527 13.9029 58.1375 14.0943C57.8335 14.2744 57.5971 14.5333 57.4283 14.8711C57.2594 15.2088 57.175 15.6197 57.175 16.1038V20.5618H54.8953ZM65.368 20.5618V12.1017H67.6477V20.5618H65.368ZM66.5163 10.9197C66.0998 10.9197 65.762 10.7958 65.5031 10.5482C65.2442 10.3005 65.1147 9.99091 65.1147 9.61941C65.1147 9.24791 65.2442 8.94395 65.5031 8.70755C65.762 8.45988 66.0998 8.33604 66.5163 8.33604C66.9328 8.33604 67.2706 8.45988 67.5295 8.70755C67.7997 8.94395 67.9348 9.24791 67.9348 9.61941C67.9348 9.99091 67.7997 10.3005 67.5295 10.5482C67.2706 10.7958 66.9328 10.9197 66.5163 10.9197ZM73.751 20.5618C73.1544 20.5618 72.6309 20.4717 72.1806 20.2916C71.7416 20.1002 71.3982 19.7906 71.1505 19.3628C70.9029 18.9238 70.779 18.3271 70.779 17.5729V13.993H69.3268V12.1017H70.779L71.0323 9.78827H73.0587V12.1017H75.3046V13.993H73.0587V17.6067C73.0587 17.9894 73.1431 18.254 73.312 18.4003C73.4809 18.5467 73.7679 18.6198 74.1732 18.6198H75.2708V20.5618H73.751ZM81.0792 20.7644C80.2236 20.7644 79.4637 20.5843 78.7995 20.224C78.1466 19.8525 77.6344 19.3403 77.2629 18.6874C76.9026 18.0232 76.7225 17.2633 76.7225 16.4077C76.7225 15.5184 76.9026 14.736 77.2629 14.0605C77.6231 13.3851 78.1297 12.856 78.7827 12.4732C79.4468 12.0904 80.2124 11.8991 81.0792 11.8991C81.9235 11.8991 82.6609 12.0848 83.2913 12.4563C83.9217 12.8166 84.4114 13.3119 84.7604 13.9423C85.1207 14.5615 85.3008 15.2707 85.3008 16.07C85.3008 16.1826 85.2952 16.312 85.2839 16.4584C85.2839 16.5935 85.2783 16.7342 85.267 16.8805H78.3436V15.4959H82.9874C82.9648 14.9555 82.7735 14.5277 82.4132 14.2125C82.053 13.8973 81.6139 13.7397 81.0961 13.7397C80.7021 13.7397 80.3418 13.8297 80.0154 14.0099C79.6889 14.1787 79.43 14.4433 79.2386 14.8035C79.0585 15.1525 78.9684 15.6028 78.9684 16.1544V16.6441C78.9684 17.1057 79.0528 17.5053 79.2217 17.8431C79.4018 18.1808 79.6495 18.4453 79.9647 18.6367C80.2799 18.8168 80.6458 18.9069 81.0623 18.9069C81.4788 18.9069 81.8222 18.8168 82.0924 18.6367C82.3738 18.4566 82.5877 18.2202 82.7341 17.9275H85.0475C84.8899 18.4566 84.6253 18.9407 84.2538 19.3797C83.8823 19.8075 83.4264 20.1452 82.886 20.3929C82.3457 20.6406 81.7434 20.7644 81.0792 20.7644ZM91.2712 20.7644C90.4156 20.7644 89.6557 20.5787 88.9915 20.2072C88.3273 19.8244 87.8095 19.3009 87.438 18.6367C87.0665 17.9725 86.8807 17.2126 86.8807 16.3571C86.8807 15.479 87.0665 14.7078 87.438 14.0436C87.8095 13.3682 88.3273 12.8447 88.9915 12.4732C89.6557 12.0904 90.4156 11.8991 91.2712 11.8991C92.3631 11.8991 93.275 12.1861 94.0068 12.7603C94.7498 13.3231 95.2226 14.0999 95.4252 15.0906H93.0105C92.9091 14.7078 92.7009 14.4039 92.3857 14.1787C92.0705 13.9536 91.6933 13.841 91.2543 13.841C90.8603 13.841 90.5056 13.9423 90.1904 14.145C89.8865 14.3363 89.6444 14.6178 89.4643 14.9893C89.2842 15.3608 89.1941 15.8054 89.1941 16.3233C89.1941 16.7173 89.2448 17.0663 89.3461 17.3702C89.4587 17.6742 89.605 17.9388 89.7852 18.1639C89.9653 18.3778 90.1792 18.541 90.4268 18.6536C90.6858 18.7662 90.9616 18.8225 91.2543 18.8225C91.547 18.8225 91.8115 18.7774 92.0479 18.6874C92.2843 18.5861 92.487 18.4397 92.6558 18.2483C92.836 18.057 92.9542 17.8262 93.0105 17.556H95.4252C95.2226 18.5354 94.7498 19.3178 94.0068 19.9032C93.2638 20.4773 92.3519 20.7644 91.2712 20.7644ZM101.109 20.5618C100.512 20.5618 99.9888 20.4717 99.5385 20.2916C99.0994 20.1002 98.7561 19.7906 98.5084 19.3628C98.2608 18.9238 98.1369 18.3271 98.1369 17.5729V13.993H96.6847V12.1017H98.1369L98.3902 9.78827H100.417V12.1017H102.662V13.993H100.417V17.6067C100.417 17.9894 100.501 18.254 100.67 18.4003C100.839 18.5467 101.126 18.6198 101.531 18.6198H102.629V20.5618H101.109Z" fill="white"/>
</svg>
