<svg width="121" height="24" viewBox="0 0 121 24" fill="none" xmlns="http://www.w3.org/2000/svg">
<path d="M47.2121 18.5761C45.8355 18.5761 44.6489 18.2811 43.6525 17.6911C42.656 17.088 41.889 16.2554 41.3515 15.1934C40.8139 14.1183 40.5452 12.8793 40.5452 11.4764C40.5452 10.0735 40.8139 8.83455 41.3515 7.75944C41.889 6.68433 42.656 5.84522 43.6525 5.24211C44.6489 4.639 45.8355 4.33745 47.2121 4.33745C48.8904 4.33745 50.2605 4.75045 51.3225 5.57645C52.3845 6.40245 53.0466 7.56933 53.3088 9.07711H50.3981C50.2277 8.34289 49.8737 7.77255 49.3361 7.36611C48.7986 6.94656 48.084 6.73678 47.1925 6.73678C46.3665 6.73678 45.6585 6.93344 45.0685 7.32678C44.4785 7.707 44.0261 8.25111 43.7115 8.95911C43.4099 9.65399 43.2591 10.4931 43.2591 11.4764C43.2591 12.4467 43.4099 13.2858 43.7115 13.9938C44.0261 14.7018 44.4785 15.2459 45.0685 15.6261C45.6585 16.0063 46.3665 16.1964 47.1925 16.1964C48.084 16.1964 48.7986 16.0063 49.3361 15.6261C49.8737 15.2328 50.2277 14.6887 50.3981 13.9938H53.3088C53.0466 15.4229 52.3845 16.5439 51.3225 17.3568C50.2605 18.1696 48.8904 18.5761 47.2121 18.5761ZM60.1775 18.5761C59.2335 18.5761 58.3813 18.3598 57.6209 17.9271C56.8735 17.4813 56.277 16.8716 55.8312 16.0981C55.3985 15.3245 55.1822 14.4395 55.1822 13.4431C55.1822 12.4204 55.3985 11.5223 55.8312 10.7488C56.277 9.97522 56.8801 9.37211 57.6405 8.93944C58.401 8.50677 59.2466 8.29044 60.1775 8.29044C61.1346 8.29044 61.9934 8.50677 62.7538 8.93944C63.5143 9.37211 64.1108 9.97522 64.5435 10.7488C64.9893 11.5223 65.2122 12.4204 65.2122 13.4431C65.2122 14.4395 64.9893 15.3245 64.5435 16.0981C64.0977 16.8716 63.4946 17.4813 62.7342 17.9271C61.9737 18.3598 61.1215 18.5761 60.1775 18.5761ZM60.1775 16.2751C60.6102 16.2751 60.997 16.1702 61.3378 15.9604C61.6918 15.7506 61.9737 15.436 62.1835 15.0164C62.3933 14.5838 62.4982 14.0528 62.4982 13.4234C62.4982 12.7941 62.3933 12.2697 62.1835 11.8501C61.9737 11.4305 61.6918 11.1159 61.3378 10.9061C60.997 10.6832 60.6167 10.5718 60.1972 10.5718C59.7776 10.5718 59.3909 10.6832 59.0369 10.9061C58.6829 11.1159 58.401 11.4305 58.1912 11.8501C57.9814 12.2697 57.8765 12.8007 57.8765 13.4431C57.8765 14.0593 57.9814 14.5838 58.1912 15.0164C58.401 15.436 58.6763 15.7506 59.0172 15.9604C59.3712 16.1702 59.758 16.2751 60.1775 16.2751ZM71.9259 18.5761C71.0212 18.5761 70.2083 18.3532 69.4872 17.9074C68.7661 17.4616 68.1958 16.852 67.7762 16.0784C67.3698 15.2918 67.1665 14.4068 67.1665 13.4234C67.1665 12.427 67.3698 11.542 67.7762 10.7684C68.1958 9.99488 68.7661 9.39177 69.4872 8.95911C70.2214 8.51333 71.0409 8.29044 71.9455 8.29044C72.6666 8.29044 73.296 8.42155 73.8335 8.68377C74.3711 8.946 74.8038 9.31966 75.1315 9.80477V4.18012H77.7865V18.3401H75.4265L75.1315 16.9831C74.9349 17.2715 74.6858 17.5403 74.3842 17.7894C74.0958 18.0254 73.7483 18.2155 73.3419 18.3598C72.9354 18.504 72.4634 18.5761 71.9259 18.5761ZM72.5355 16.2554C73.06 16.2554 73.5189 16.1374 73.9122 15.9014C74.3186 15.6523 74.6333 15.318 74.8562 14.8984C75.0922 14.4658 75.2102 13.9741 75.2102 13.4234C75.2102 12.8728 75.0922 12.3877 74.8562 11.9681C74.6333 11.5354 74.3186 11.2011 73.9122 10.9651C73.5189 10.716 73.0534 10.5914 72.5159 10.5914C72.0176 10.5914 71.5653 10.716 71.1589 10.9651C70.7524 11.2011 70.4312 11.5354 70.1952 11.9681C69.9723 12.3877 69.8609 12.8728 69.8609 13.4234C69.8609 13.9741 69.9723 14.4658 70.1952 14.8984C70.4312 15.318 70.7524 15.6523 71.1589 15.9014C71.5653 16.1374 72.0242 16.2554 72.5355 16.2554ZM85.1275 18.5761C84.1311 18.5761 83.2461 18.3663 82.4726 17.9468C81.7121 17.5141 81.1156 16.9175 80.6829 16.1571C80.2633 15.3966 80.0536 14.5182 80.0536 13.5218C80.0536 12.4991 80.2633 11.5944 80.6829 10.8078C81.1024 10.0211 81.6924 9.40488 82.4529 8.95911C83.2264 8.51333 84.118 8.29044 85.1275 8.29044C86.1109 8.29044 86.9697 8.50677 87.7039 8.93944C88.4381 9.359 89.0084 9.93588 89.4149 10.6701C89.8344 11.3912 90.0442 12.2107 90.0442 13.1284C90.0442 13.2595 90.0442 13.4103 90.0442 13.5808C90.0442 13.7381 90.0311 13.902 90.0049 14.0724H81.9416V12.4598H87.3695C87.3302 11.8435 87.1008 11.3519 86.6812 10.9848C86.2748 10.6177 85.7634 10.4341 85.1472 10.4341C84.6883 10.4341 84.2688 10.539 83.8886 10.7488C83.5083 10.9454 83.2068 11.2535 82.9839 11.6731C82.7741 12.0795 82.6692 12.5974 82.6692 13.2268V13.7971C82.6692 14.3215 82.7676 14.7804 82.9642 15.1738C83.174 15.5671 83.4624 15.8752 83.8296 16.0981C84.2098 16.3079 84.6359 16.4128 85.1079 16.4128C85.593 16.4128 85.9929 16.3079 86.3075 16.0981C86.6353 15.8883 86.8844 15.613 87.0549 15.2721H89.7689C89.5853 15.8883 89.2772 16.4455 88.8445 16.9438C88.4119 17.442 87.8809 17.8419 87.2515 18.1434C86.6222 18.4319 85.9142 18.5761 85.1275 18.5761ZM92.1793 18.3401V4.18012H94.8343V18.3401H92.1793ZM97.4819 18.3401V8.52644H100.137V18.3401H97.4819ZM98.8192 7.13011C98.3341 7.13011 97.9408 6.98589 97.6392 6.69745C97.3377 6.409 97.1869 6.055 97.1869 5.63545C97.1869 5.20278 97.3377 4.84878 97.6392 4.57345C97.9408 4.285 98.3341 4.14078 98.8192 4.14078C99.3043 4.14078 99.6977 4.285 99.9992 4.57345C100.314 4.84878 100.471 5.20278 100.471 5.63545C100.471 6.055 100.314 6.409 99.9992 6.69745C99.6977 6.98589 99.3043 7.13011 98.8192 7.13011ZM103.233 18.3401V7.54311C103.233 6.71711 103.371 6.06156 103.646 5.57645C103.921 5.09134 104.315 4.73734 104.826 4.51445C105.337 4.29156 105.941 4.18012 106.635 4.18012H107.796V6.44178H107.048C106.629 6.44178 106.327 6.527 106.144 6.69745C105.973 6.85478 105.888 7.13667 105.888 7.54311V18.3401H103.233ZM101.896 10.7291V8.52644H107.973V10.7291H101.896ZM111.261 22.6667L113.68 17.2388H113.09L109.097 8.52644H111.988L114.84 14.8198L117.397 8.52644H120.229L114.073 22.6667H111.261Z" fill="white"/>
<path d="M13.6674 24C13.4803 24 13.2839 23.9813 13.0874 23.925C11.8059 23.6063 11.0202 22.3033 11.3382 21.019L16.1275 1.82074C16.4549 0.536485 17.7551 -0.241568 19.0366 0.0677788C20.3181 0.395872 21.0945 1.69888 20.7765 2.98314L15.9872 22.1814C15.7159 23.2688 14.7431 24 13.6674 24Z" fill="white"/>
<path d="M24.9327 19.2005C24.3154 19.2005 23.7073 18.9661 23.2396 18.4974C22.3042 17.56 22.3042 16.0414 23.2396 15.104L26.3358 12.0011L23.2396 8.89826C22.3042 7.96085 22.3042 6.44224 23.2396 5.50482C24.175 4.5674 25.6904 4.5674 26.6258 5.50482L31.4151 10.3044C32.3505 11.2418 32.3505 12.7604 31.4151 13.6978L26.6258 18.4974C26.1581 18.9661 25.5501 19.2005 24.9327 19.2005Z" fill="white"/>
<path d="M7.18389 19.2005C6.56652 19.2005 5.95851 18.9661 5.49081 18.4974L0.701551 13.6978C-0.23385 12.7604 -0.23385 11.2418 0.701551 10.3044L5.49081 5.50482C6.42621 4.5674 7.94156 4.5674 8.87696 5.50482C9.81237 6.44224 9.81237 7.96085 8.87696 8.89826L5.78078 12.0011L8.87696 15.104C9.81237 16.0414 9.81237 17.56 8.87696 18.4974C8.40926 18.9661 7.80125 19.2005 7.18389 19.2005Z" fill="white"/>
</svg>
