<svg width="32" height="32" viewBox="0 0 32 32" fill="none" xmlns="http://www.w3.org/2000/svg">
<path opacity="0.4" d="M23.0119 2.68062H8.98838C7.90873 2.68062 6.47953 2.49172 5.74117 3.50185C5.3335 4.05958 5.3335 4.86664 5.3335 6.48076C5.3335 7.85691 5.3335 8.54499 5.60838 9.12471C6.07788 10.1148 7.12759 10.5449 8.02732 11.0127L12.4225 13.2976C14.1781 14.2103 15.0559 14.6666 16.0002 14.6666C16.9444 14.6666 17.8222 14.2103 19.5779 13.2976L23.973 11.0127C24.8727 10.5449 25.9224 10.1148 26.3919 9.12471C26.6668 8.54499 26.6668 7.85691 26.6668 6.48076C26.6668 4.86664 26.6668 4.05958 26.2592 3.50185C25.5208 2.49172 24.0916 2.68062 23.0119 2.68062Z" fill="#5235F6"/>
<path d="M14.0388 18.1835C14.9969 17.6168 15.4759 17.3334 15.9998 17.3334C16.5237 17.3334 17.0028 17.6168 17.9609 18.1835L19.2942 18.9723C20.2887 19.5606 20.786 19.8547 21.0596 20.3467C21.3332 20.8386 21.3332 21.4386 21.3332 22.6386V24.0281C21.3332 25.2281 21.3332 25.8281 21.0596 26.3201C20.786 26.812 20.2887 27.1062 19.2942 27.6945L17.9609 28.4832C17.0028 29.05 16.5237 29.3334 15.9998 29.3334C15.4759 29.3334 14.9969 29.05 14.0388 28.4832L12.7055 27.6945C11.7109 27.1062 11.2137 26.812 10.9401 26.3201C10.6665 25.8281 10.6665 25.2281 10.6665 24.0281V22.6386C10.6665 21.4386 10.6665 20.8386 10.9401 20.3467C11.2137 19.8547 11.7109 19.5606 12.7055 18.9723L14.0388 18.1835Z" stroke="#5235F6" stroke-width="1.5" stroke-linejoin="round"/>
<path d="M23.0119 2.68075H8.98838C7.90873 2.68075 6.47953 2.49184 5.74117 3.50197C5.3335 4.0597 5.3335 4.86676 5.3335 6.48088C5.3335 7.85704 5.3335 8.54511 5.60838 9.12483C6.07788 10.115 7.12759 10.5451 8.02732 11.0128L12.4225 13.2977C14.1781 14.2104 15.0559 14.6667 16.0002 14.6667C16.9444 14.6667 17.8222 14.2104 19.5779 13.2977L23.973 11.0128C24.8727 10.5451 25.9224 10.115 26.3919 9.12483C26.6668 8.54511 26.6668 7.85704 26.6668 6.48088C26.6668 4.86676 26.6668 4.0597 26.2592 3.50197C25.5208 2.49184 24.0916 2.68075 23.0119 2.68075Z" stroke="#5235F6" stroke-width="1.5"/>
<path d="M16 2.66663V7.99996" stroke="#5235F6" stroke-width="1.5" stroke-linecap="round"/>
</svg>
