<svg width="32" height="32" viewBox="0 0 32 32" fill="none" xmlns="http://www.w3.org/2000/svg">
<path opacity="0.4" fill-rule="evenodd" clip-rule="evenodd" d="M12.1793 3.33337C8.62423 3.41438 6.54776 3.75279 5.12902 5.16661C3.88732 6.404 3.47225 8.14346 3.3335 10.9334V21.0667C3.47225 23.8566 3.88732 25.5961 5.12902 26.8335C6.54776 28.2473 8.62423 28.5857 12.1793 28.6667H19.8211C23.3761 28.5857 25.4526 28.2473 26.8713 26.8335C28.113 25.5961 28.5281 23.8566 28.6668 21.0667V10.9334C28.5281 8.14346 28.113 6.404 26.8713 5.16661C25.4526 3.75279 23.3761 3.41438 19.8211 3.33337H12.1793ZM15.9893 16C17.8329 16 19.3274 14.5077 19.3274 12.6667C19.3274 10.8258 17.8329 9.33337 15.9893 9.33337C14.1457 9.33337 12.6512 10.8258 12.6512 12.6667C12.6512 14.5077 14.1457 16 15.9893 16Z" fill="#5235F6"/>
<path d="M12.1793 3.33337C8.62423 3.41438 6.54776 3.75279 5.12902 5.16661C3.88732 6.404 3.47225 8.14346 3.3335 10.9334M19.8211 3.33337C23.3761 3.41438 25.4526 3.75279 26.8713 5.16661C28.113 6.404 28.5281 8.14346 28.6668 10.9334M19.8211 28.6667C23.3761 28.5857 25.4526 28.2473 26.8713 26.8335C28.113 25.5961 28.5281 23.8566 28.6668 21.0667M12.1793 28.6667C8.62423 28.5857 6.54776 28.2473 5.12902 26.8335C3.88732 25.5961 3.47225 23.8566 3.3335 21.0667" stroke="#5235F6" stroke-width="1.5" stroke-linecap="round" stroke-linejoin="round"/>
<path d="M10 22.6667C13.1089 19.4105 18.8576 19.2572 22 22.6667M19.3268 12.6667C19.3268 14.5077 17.8323 16 15.9887 16C14.1451 16 12.6506 14.5077 12.6506 12.6667C12.6506 10.8258 14.1451 9.33337 15.9887 9.33337C17.8323 9.33337 19.3268 10.8258 19.3268 12.6667Z" stroke="#5235F6" stroke-width="1.5" stroke-linecap="round"/>
</svg>
