<svg width="32" height="32" viewBox="0 0 32 32" fill="none" xmlns="http://www.w3.org/2000/svg">
<path opacity="0.4" d="M17.3332 9.33333C17.3332 12.2789 14.9454 14.6667 11.9998 14.6667C9.05432 14.6667 6.6665 12.2789 6.6665 9.33333C6.6665 6.38781 9.05432 4 11.9998 4C14.9454 4 17.3332 6.38781 17.3332 9.33333Z" fill="#5235F6"/>
<path opacity="0.4" d="M14.6665 18.6666H9.33317C5.65127 18.6666 2.6665 21.6514 2.6665 25.3333C2.6665 26.8061 3.86041 28 5.33317 28H18.6665C20.1393 28 21.3332 26.8061 21.3332 25.3333C21.3332 21.6514 18.3484 18.6666 14.6665 18.6666Z" fill="#5235F6"/>
<path d="M17.3332 9.33333C17.3332 12.2789 14.9454 14.6667 11.9998 14.6667C9.05432 14.6667 6.6665 12.2789 6.6665 9.33333C6.6665 6.38781 9.05432 4 11.9998 4C14.9454 4 17.3332 6.38781 17.3332 9.33333Z" stroke="#5235F6" stroke-width="1.5"/>
<path d="M20 14.6667C22.9455 14.6667 25.3333 12.2789 25.3333 9.33333C25.3333 6.38781 22.9455 4 20 4" stroke="#5235F6" stroke-width="1.5" stroke-linecap="round" stroke-linejoin="round"/>
<path d="M14.6665 18.6666H9.33317C5.65127 18.6666 2.6665 21.6514 2.6665 25.3333C2.6665 26.8061 3.86041 28 5.33317 28H18.6665C20.1393 28 21.3332 26.8061 21.3332 25.3333C21.3332 21.6514 18.3484 18.6666 14.6665 18.6666Z" stroke="#5235F6" stroke-width="1.5" stroke-linejoin="round"/>
<path d="M22.6665 18.6666C26.3484 18.6666 29.3332 21.6514 29.3332 25.3333C29.3332 26.8061 28.1393 28 26.6665 28H24.6665" stroke="#5235F6" stroke-width="1.5" stroke-linecap="round" stroke-linejoin="round"/>
</svg>
