<svg width="32" height="32" viewBox="0 0 32 32" fill="none" xmlns="http://www.w3.org/2000/svg">
<path opacity="0.4" d="M11.524 4.19408L9.25088 5.24478C5.75029 6.86287 4 7.67192 4 8.99996C4 10.328 5.7503 11.137 9.25089 12.7551L11.524 13.8058C13.727 14.8241 14.8285 15.3333 16 15.3333C17.1715 15.3333 18.273 14.8241 20.476 13.8058L22.7491 12.7551C26.2497 11.137 28 10.328 28 8.99996C28 7.67192 26.2497 6.86287 22.7491 5.24478L20.476 4.19408C18.273 3.17578 17.1715 2.66663 16 2.66663C14.8285 2.66663 13.727 3.17578 11.524 4.19408Z" fill="#5235F6"/>
<path d="M11.524 4.19408L9.25088 5.24478C5.75029 6.86287 4 7.67192 4 8.99996C4 10.328 5.7503 11.137 9.25089 12.7551L11.524 13.8058C13.727 14.8241 14.8285 15.3333 16 15.3333C17.1715 15.3333 18.273 14.8241 20.476 13.8058L22.7491 12.7551C26.2497 11.137 28 10.328 28 8.99996C28 7.67192 26.2497 6.86287 22.7491 5.24478L20.476 4.19408C18.273 3.17578 17.1715 2.66663 16 2.66663C14.8285 2.66663 13.727 3.17578 11.524 4.19408Z" stroke="#5235F6" stroke-width="1.5" stroke-linecap="round" stroke-linejoin="round"/>
<path d="M27.7173 14.7969C27.9058 15.0619 28 15.3381 28 15.6418C28 16.951 26.2497 17.7485 22.7491 19.3435L20.476 20.3793C18.273 21.3831 17.1715 21.885 16 21.885C14.8285 21.885 13.727 21.3831 11.524 20.3793L9.25089 19.3435C5.7503 17.7485 4 16.951 4 15.6418C4 15.3381 4.09422 15.0619 4.28267 14.7969" stroke="#5235F6" stroke-width="1.5" stroke-linecap="round" stroke-linejoin="round"/>
<path d="M27.1689 21.6875C27.723 22.1288 28 22.5687 28 23.0895C28 24.3986 26.2497 25.1962 22.7491 26.7912L20.476 27.827C18.273 28.8308 17.1715 29.3327 16 29.3327C14.8285 29.3327 13.727 28.8308 11.524 27.827L9.25089 26.7912C5.7503 25.1962 4 24.3986 4 23.0895C4 22.5687 4.27704 22.1288 4.83112 21.6875" stroke="#5235F6" stroke-width="1.5" stroke-linecap="round" stroke-linejoin="round"/>
</svg>
