<svg width="139" height="32" viewBox="0 0 139 32" fill="none" xmlns="http://www.w3.org/2000/svg">
<path d="M54.548 26.252C52.0093 26.252 49.984 25.6733 48.472 24.516C46.9787 23.34 46.1013 21.688 45.84 19.56H49.34C49.508 20.792 50.0587 21.7533 50.992 22.444C51.9253 23.116 53.148 23.452 54.66 23.452C55.9107 23.452 56.8627 23.228 57.516 22.78C58.188 22.3133 58.524 21.6693 58.524 20.848C58.524 20.12 58.3187 19.532 57.908 19.084C57.4973 18.636 56.8067 18.272 55.836 17.992L52.196 16.9C50.348 16.34 48.9853 15.6027 48.108 14.688C47.2493 13.7733 46.82 12.6253 46.82 11.244C46.82 10.0867 47.1187 9.07867 47.716 8.22C48.3133 7.36133 49.1533 6.69867 50.236 6.232C51.3373 5.76533 52.616 5.532 54.072 5.532C56.312 5.532 58.0947 6.08267 59.42 7.184C60.764 8.26667 61.5293 9.74133 61.716 11.608H58.216C58.0107 10.488 57.544 9.66667 56.816 9.144C56.088 8.60267 55.108 8.332 53.876 8.332C52.7933 8.332 51.9347 8.54667 51.3 8.976C50.6653 9.40533 50.348 9.99333 50.348 10.74C50.348 11.356 50.5347 11.8787 50.908 12.308C51.3 12.7373 52.0187 13.1107 53.064 13.428L56.76 14.548C58.608 15.0893 59.952 15.8267 60.792 16.76C61.632 17.6933 62.052 18.8787 62.052 20.316C62.052 22.22 61.3893 23.6853 60.064 24.712C58.7573 25.7387 56.9187 26.252 54.548 26.252ZM71.0341 26.28C69.2794 26.28 67.9821 25.8693 67.1421 25.048C66.3208 24.208 65.9101 22.9573 65.9101 21.296V8.472L69.4661 7.156V21.38C69.4661 22.0707 69.6528 22.584 70.0261 22.92C70.3994 23.256 70.9874 23.424 71.7901 23.424C72.1074 23.424 72.3874 23.4053 72.6301 23.368C72.8914 23.312 73.1341 23.2467 73.3581 23.172V25.916C73.1341 26.028 72.8168 26.112 72.4061 26.168C71.9954 26.2427 71.5381 26.28 71.0341 26.28ZM63.1661 14.492V11.72H73.3581V14.492H63.1661ZM80.3437 26.28C79.3543 26.28 78.4957 26.0747 77.7677 25.664C77.0583 25.2347 76.5077 24.656 76.1157 23.928C75.7423 23.2 75.5557 22.3787 75.5557 21.464V11.72H79.0837V20.736C79.0837 21.6133 79.2983 22.276 79.7277 22.724C80.1757 23.172 80.801 23.396 81.6037 23.396C82.3317 23.396 82.9663 23.228 83.5077 22.892C84.0677 22.556 84.5063 22.0893 84.8237 21.492C85.1597 20.876 85.3277 20.1853 85.3277 19.42L85.6917 22.836C85.225 23.8813 84.525 24.7213 83.5917 25.356C82.677 25.972 81.5943 26.28 80.3437 26.28ZM85.4397 26V22.64H85.3277V11.72H88.8837V26H85.4397ZM101.739 26L97.3425 19.616L91.4065 11.72H95.4105L99.3865 17.516L105.743 26H101.739ZM97.6225 17.404L101.627 11.72H105.547L99.3305 19.868L97.6225 17.404ZM99.0225 20.036L94.7105 26H90.8185L97.3425 17.544L99.0225 20.036ZM113.663 26.28C112.151 26.28 110.826 25.9627 109.687 25.328C108.567 24.6933 107.69 23.816 107.055 22.696C106.439 21.576 106.131 20.288 106.131 18.832C106.131 17.376 106.439 16.0973 107.055 14.996C107.69 13.876 108.567 13.008 109.687 12.392C110.807 11.7573 112.114 11.44 113.607 11.44C115.026 11.44 116.258 11.7387 117.303 12.336C118.348 12.9147 119.16 13.736 119.739 14.8C120.318 15.864 120.607 17.1053 120.607 18.524C120.607 18.7853 120.598 19.028 120.579 19.252C120.56 19.476 120.532 19.7 120.495 19.924H108.315V17.46H117.779L117.051 18.132C117.051 16.788 116.743 15.78 116.127 15.108C115.511 14.436 114.652 14.1 113.551 14.1C112.356 14.1 111.404 14.5107 110.695 15.332C110.004 16.1533 109.659 17.3387 109.659 18.888C109.659 20.4187 110.004 21.5947 110.695 22.416C111.404 23.2187 112.403 23.62 113.691 23.62C114.438 23.62 115.091 23.48 115.651 23.2C116.211 22.92 116.622 22.4907 116.883 21.912H120.215C119.748 23.256 118.955 24.32 117.835 25.104C116.734 25.888 115.343 26.28 113.663 26.28ZM123.247 26V11.72H126.691V15.08H126.775V26H123.247ZM133.271 26V16.984C133.271 16.1067 133.047 15.444 132.599 14.996C132.151 14.548 131.498 14.324 130.639 14.324C129.892 14.324 129.22 14.492 128.623 14.828C128.044 15.164 127.587 15.6307 127.251 16.228C126.934 16.8253 126.775 17.516 126.775 18.3L126.411 14.884C126.896 13.8387 127.606 13.008 128.539 12.392C129.472 11.7573 130.592 11.44 131.899 11.44C133.448 11.44 134.652 11.8787 135.511 12.756C136.388 13.6333 136.827 14.8 136.827 16.256V26H133.271Z" fill="#212121"/>
<path d="M23.1785 0H12.3373L6.27208 12.7458H0L4.57983 22.3729H12.5312V22.3722L23.1785 0.00373863V22.3729H12.5312L17.1103 32H33V9.62707L23.1785 0Z" fill="#212121"/>
</svg>
