<svg width="24" height="22" viewBox="0 0 24 22" fill="none" xmlns="http://www.w3.org/2000/svg">
<path d="M0 0C1.68609 0 3.37219 0 5.10938 0C5.57344 1.8526 5.57344 1.8526 6.04688 3.74262C11.9714 3.75806 17.8959 3.7735 24 3.7894C23.9473 4.21044 23.9473 4.21044 23.9069 4.3704C23.8978 4.40691 23.8887 4.44342 23.8793 4.48103C23.8694 4.51983 23.8595 4.55862 23.8493 4.59859C23.8388 4.64068 23.8282 4.68277 23.8173 4.72614C23.7823 4.86563 23.747 5.00504 23.7116 5.14446C23.6866 5.2437 23.6617 5.34294 23.6367 5.44219C23.5836 5.65359 23.5303 5.86495 23.4769 6.07629C23.3509 6.57508 23.2255 7.07404 23.1001 7.57298C23.058 7.74043 23.0159 7.90786 22.9738 8.0753C22.7449 8.98549 22.5187 9.89633 22.2943 10.8076C22.2518 10.9799 22.2094 11.1522 22.1669 11.3245C22.1587 11.3577 22.1505 11.3908 22.1421 11.4249C22.1259 11.4906 22.1097 11.5563 22.0935 11.622C22.0778 11.6858 22.062 11.7496 22.0463 11.8134C21.9039 12.3911 21.7609 12.9686 21.6168 13.5458C21.5946 13.6345 21.5725 13.7233 21.5504 13.812C21.5213 13.9291 21.492 14.0462 21.4627 14.1633C21.4544 14.197 21.446 14.2306 21.4374 14.2653C21.3804 14.4919 21.3804 14.4919 21.3281 14.5962C17.1825 14.5962 13.0369 14.5962 8.76562 14.5962C8.95125 15.3373 9.13688 16.0783 9.32812 16.8418C9.32812 16.8727 9.32812 16.9035 9.32812 16.9354C9.37926 16.9352 9.4304 16.935 9.48308 16.9348C10.7288 16.9307 11.9746 16.9276 13.2203 16.9257C13.8227 16.9247 14.4252 16.9234 15.0276 16.9212C15.5528 16.9194 16.0781 16.9182 16.6033 16.9177C16.8813 16.9175 17.1592 16.9169 17.4372 16.9156C17.6992 16.9143 17.9611 16.9139 18.2231 16.9142C18.3189 16.9141 18.4147 16.9138 18.5106 16.913C19.3253 16.9072 20.0699 17.002 20.6919 17.5876C21.2253 18.1147 21.4774 18.7137 21.4834 19.4616C21.484 20.1856 21.2373 20.7382 20.7656 21.2861C20.1331 21.849 19.456 22.03 18.6235 21.9961C17.9705 21.9466 17.4305 21.6086 16.9858 21.1463C16.6037 20.6604 16.3898 20.0926 16.3887 19.4762C16.3875 19.4429 16.3864 19.4095 16.3852 19.3751C16.3833 19.017 16.4784 18.8064 16.5938 18.4324C14.6602 18.417 12.7266 18.4015 10.7344 18.3856C10.7963 18.5863 10.8581 18.787 10.9219 18.9938C10.9386 19.1569 10.9491 19.3001 10.9453 19.4616C10.9447 19.5016 10.9441 19.5416 10.9435 19.5829C10.9222 20.2539 10.653 20.7817 10.2188 21.2861C9.58625 21.849 8.90911 22.03 8.0766 21.9961C7.42366 21.9466 6.88364 21.6086 6.4389 21.1463C5.94786 20.5218 5.78891 19.8202 5.85938 19.0406C5.99572 18.3359 6.387 17.739 6.97614 17.3242C7.24541 17.1621 7.51908 17.04 7.82812 16.9821C7.81541 16.938 7.80269 16.8938 7.78959 16.8483C7.59722 16.1726 7.42784 15.4911 7.25744 14.8097C7.21282 14.6313 7.16807 14.453 7.12334 14.2747C7.03608 13.9268 6.94894 13.5788 6.86184 13.2308C6.79109 12.9482 6.7203 12.6655 6.64947 12.3829C6.63936 12.3425 6.62924 12.3022 6.61882 12.2606C6.59827 12.1785 6.57771 12.0965 6.55716 12.0145C6.36507 11.2479 6.17312 10.4813 5.98122 9.71472C5.8165 9.05673 5.65166 8.39876 5.48674 7.74081C5.29495 6.97564 5.10323 6.21046 4.91162 5.44525C4.89122 5.36377 4.87082 5.2823 4.85041 5.20082C4.84038 5.16074 4.83034 5.12065 4.82 5.07935C4.74919 4.79661 4.67834 4.51387 4.60746 4.23114C4.52126 3.88729 4.43514 3.54341 4.34912 3.19951C4.30522 3.02401 4.26128 2.84851 4.21725 2.67304C4.16962 2.48324 4.12217 2.29339 4.07473 2.10354C4.06066 2.0476 4.0466 1.99165 4.0321 1.93401C4.01951 1.8835 4.00692 1.83299 3.99395 1.78095C3.98297 1.7371 3.97199 1.69325 3.96067 1.64807C3.9375 1.54383 3.9375 1.54383 3.9375 1.45027C2.63813 1.45027 1.33875 1.45027 0 1.45027C0 0.971678 0 0.49309 0 0Z" fill="#171717"/>
</svg>
